<svg xmlns="http://www.w3.org/2000/svg" version="1.1" xmlns:xlink="http://www.w3.org/1999/xlink" width="512" height="512" x="0" y="0" viewBox="0 0 512 512" style="enable-background:new 0 0 512 512" xml:space="preserve" class=""><g><path d="M346 390c-18.37 0-36.353-3.017-53.395-8.848C284.188 393 270.701 400 256 400c-14.697 0-28.182-6.997-36.605-18.848C202.353 386.983 184.37 390 166 390c-55.745 0-105.115-27.792-135-70.242V397c0 8.114 6.452 14.757 14.562 14.993 39.326 1.147 78.663 10.98 113.757 28.438 32.698 16.264 61.401 38.59 85.314 66.357a15 15 0 0 0 22.732 0c23.913-27.768 52.616-50.094 85.314-66.357 35.094-17.457 74.431-27.29 113.757-28.438C474.548 411.757 481 405.114 481 397v-77.242C451.115 362.208 401.745 390 346 390zM294.318 222.396l-7.74 10.835C290.604 262.433 315.709 285 346 285c33.084 0 60-26.916 60-60 0-26.251-16.953-48.603-40.48-56.723a151.033 151.033 0 0 0-71.202 54.119zM331 215c0-8.284 6.716-15 15-15s15 6.716 15 15v20c0 8.284-6.716 15-15 15s-15-6.716-15-15z" fill="#000000" opacity="1" data-original="#000000" class=""></path><path d="M404.263 156.472C423.667 172.992 436 197.579 436 225c0 49.626-40.374 90-90 90-1.987 0-3.957-.072-5.912-.199a155.447 155.447 0 0 1-26.956 41.148A135.357 135.357 0 0 0 346 360c74.439 0 135-60.561 135-135 0-21.42-5.147-42.748-14.887-61.678-5.248-10.202-11.841-19.739-19.515-28.316l-13.976 8.069a190.98 190.98 0 0 1-28.359 13.397zM65.401 135.007c-7.674 8.576-14.266 18.114-19.515 28.316C36.147 182.252 31 203.58 31 225c0 74.439 60.561 135 135 135 11.196 0 22.211-1.386 32.868-4.051a155.446 155.446 0 0 1-26.956-41.148A91.143 91.143 0 0 1 166 315c-49.626 0-90-40.374-90-90 0-27.421 12.333-52.008 31.737-68.528a191.023 191.023 0 0 1-28.359-13.396z" fill="#000000" opacity="1" data-original="#000000" class=""></path><path d="M146.48 168.277C122.953 176.397 106 198.749 106 225c0 33.084 26.916 60 60 60 30.291 0 55.395-22.567 59.421-51.769l-7.74-10.835a151.026 151.026 0 0 0-71.201-54.119zM181 235c0 8.284-6.716 15-15 15s-15-6.716-15-15v-20c0-8.284 6.716-15 15-15s15 6.716 15 15zM254.059 243.562c-6.067 28.811-25.945 52.593-52.371 64.052 5.96 11.868 13.813 22.791 23.197 32.175a130.488 130.488 0 0 1 18.428 23.188C246.055 367.374 250.798 370 256 370s9.945-2.626 12.687-7.023a130.53 130.53 0 0 1 18.429-23.188c9.384-9.385 17.236-20.307 23.197-32.175-26.426-11.459-46.304-35.242-52.371-64.052-.646.028-1.291.059-1.941.059s-1.296-.032-1.942-.059zM489.471 1.951l-53.466 30.868c-24.87 14.359-55.198 14.944-80.914 2.162C325.238 20.142 291.603 11.782 256 11.782c-35.578 0-69.134 8.419-98.936 23.281-25.676 12.804-55.98 12.241-80.828-2.105L22.529 1.951C12.54-3.816.263 3.951 1.035 15.46 3.079 45.966 20.081 74.2 47.48 90.019l46.898 27.076a161.002 161.002 0 0 0 42.801 17.094 181.017 181.017 0 0 1 104.915 70.77l1.7 2.38c5.982 8.375 18.43 8.375 24.412 0l1.7-2.38a181.012 181.012 0 0 1 104.915-70.77 160.969 160.969 0 0 0 42.801-17.094l46.898-27.076c27.399-15.819 44.401-44.052 46.445-74.559.772-11.509-11.505-19.276-21.494-13.509z" fill="#000000" opacity="1" data-original="#000000" class=""></path></g></svg>
